Coordinates
version=1
nRows=31
nColumns=34
inDegrees=no

Units are S.I. units (second, meters, Newtons, ...)
If the header above contains a line with 'inDegrees', this indicates whether rotational values are in degrees (yes) or radians (no).

endheader
time	pelvis_tilt	pelvis_list	pelvis_rotation	pelvis_tx	pelvis_ty	pelvis_tz	hip_flexion_r	hip_adduction_r	hip_rotation_r	knee_angle_r	ankle_angle_r	subtalar_angle_r	mtp_angle_r	hip_flexion_l	hip_adduction_l	hip_rotation_l	knee_angle_l	ankle_angle_l	subtalar_angle_l	mtp_angle_l	lumbar_extension	lumbar_bending	lumbar_rotation	arm_flex_r	arm_add_r	arm_rot_r	elbow_flex_r	pro_sup_r	arm_flex_l	arm_add_l	arm_rot_l	elbow_flex_l	pro_sup_l
10.017	-0.10983	-0.019009	3.11264	0.352451	0.815989	0.18231	0.348193	-0.0393915	-0.29296	1.14094	0.614134	-0.418477	-0.133286	0.578199	-0.627699	-0.564372	0.819379	-0.219264	-0.274982	-0.133286	-0.264312	0.0291372	0.19781	0.301502	-0.414742	0.79674	1.13378	1.03743	1.19269	-0.340775	-0.201555	0.906046	1.22191
10.037	-0.111402	-0.0134254	3.08075	0.357789	0.817369	0.179266	0.354062	-0.0250917	-0.274598	1.13434	0.602895	-0.415911	-0.133286	0.567484	-0.635068	-0.551786	0.805346	-0.235054	-0.303887	-0.133286	-0.265494	0.0327667	0.156998	0.272954	-0.472796	0.800312	1.07009	1.08684	1.22783	-0.295676	-0.1308	0.951142	1.13766
10.057	-0.110113	-0.00670214	3.05495	0.362818	0.818867	0.176817	0.360697	-0.00940144	-0.25811	1.12543	0.590843	-0.412667	-0.133286	0.565077	-0.640712	-0.533322	0.793009	-0.254721	-0.337212	-0.133286	-0.263284	0.0382973	0.118013	0.259917	-0.518355	0.760396	0.977784	1.14612	1.25966	-0.248164	-0.0496178	1.00032	1.0697
10.077	-0.105406	-0.000581546	3.03252	0.367292	0.82046	0.17492	0.368961	0.0053709	-0.243106	1.11512	0.578589	-0.408426	-0.133286	0.570724	-0.644785	-0.509969	0.785219	-0.277242	-0.373713	-0.133286	-0.25723	0.0440228	0.0818586	0.26832	-0.548051	0.666054	0.858382	1.22493	1.28488	-0.202333	0.039929	1.05886	1.01827
10.097	-0.0971589	0.0039001	3.0123	0.37112	0.822083	0.173511	0.379416	0.0182582	-0.229153	1.104	0.566363	-0.404432	-0.133286	0.585211	-0.647089	-0.480666	0.785772	-0.300905	-0.411289	-0.133286	-0.247238	0.0489906	0.0487843	0.305064	-0.561953	0.507217	0.716839	1.33482	1.30081	-0.161028	0.134005	1.1289	0.98839
10.117	-0.0859519	0.00622837	2.99437	0.374347	0.823681	0.172538	0.391953	0.0288769	-0.21615	1.09257	0.554244	-0.402263	-0.133286	0.609305	-0.646848	-0.443962	0.799266	-0.323404	-0.448372	-0.133286	-0.233829	0.0528079	0.0186057	0.37562	-0.564508	0.279528	0.562218	1.48414	1.30538	-0.125512	0.228163	1.20919	0.98696
10.137	-0.0730839	0.00636863	2.97928	0.377061	0.825235	0.171933	0.405577	0.0370554	-0.204361	1.08123	0.542449	-0.402553	-0.133286	0.642458	-0.643192	-0.400196	0.830414	-0.342218	-0.484215	-0.133286	-0.218157	0.0554314	-0.00878094	0.480904	-0.563921	-0.00740566	0.407997	1.66787	1.29739	-0.0956102	0.318269	1.29564	1.02055
10.157	-0.0599784	0.00456656	2.96718	0.379339	0.826712	0.17157	0.419104	0.0426133	-0.194256	1.07051	0.531479	-0.404286	-0.133286	0.682708	-0.63575	-0.352459	0.882668	-0.356037	-0.518294	-0.133286	-0.201507	0.0568481	-0.0329887	0.613908	-0.569432	-0.320295	0.272009	1.8581	1.27699	-0.0703006	0.401746	1.38244	1.09189
10.177	-0.0477867	0.00108826	2.95753	0.381259	0.828031	0.171233	0.431728	0.0453914	-0.186151	1.06117	0.522053	-0.405336	-0.133286	0.727199	-0.624846	-0.30556	0.956663	-0.366463	-0.549287	-0.133286	-0.185072	0.0568021	-0.0530997	0.757889	-0.587278	-0.596661	0.17573	1.99908	1.2462	-0.0485244	0.478483	1.46337	1.19864
10.197	-0.0374014	-0.00407987	2.94967	0.382923	0.829103	0.17069	0.443064	0.0451324	-0.180034	1.05408	0.514826	-0.403892	-0.133286	0.772868	-0.610833	-0.263933	1.05001	-0.377597	-0.574487	-0.133286	-0.169884	0.0547323	-0.0689974	0.900329	-0.614543	-0.795162	0.125234	2.07213	1.20865	-0.0302597	0.550175	1.53295	1.33356
10.217	-0.0293715	-0.010839	2.94348	0.384413	0.829843	0.169832	0.452998	0.0416533	-0.176047	1.05003	0.510265	-0.398981	-0.133286	0.817228	-0.594349	-0.230726	1.15849	-0.393497	-0.590295	-0.133286	-0.156769	0.0505833	-0.0811757	1.03305	-0.645915	-0.896301	0.116416	2.07309	1.1688	-0.0153935	0.618759	1.58693	1.48579
10.237	-0.0238387	-0.0189373	2.9394	0.385727	0.830169	0.168689	0.461613	0.0347709	-0.174658	1.04963	0.508685	-0.390198	-0.133286	0.858272	-0.576801	-0.208087	1.27612	-0.416237	-0.594094	-0.133286	-0.146187	0.0448353	-0.0904824	1.14983	-0.677583	-0.896889	0.142797	2.00067	1.13083	-0.00343494	0.685371	1.6231	1.6421
10.257	-0.0207633	-0.0280322	2.93793	0.386789	0.829979	0.167367	0.469011	0.0244199	-0.176265	1.05342	0.510384	-0.377661	-0.133286	0.894302	-0.560701	-0.19681	1.39528	-0.444889	-0.586555	-0.133286	-0.138315	0.0381885	-0.0977989	1.24563	-0.708614	-0.803387	0.199711	1.85627	1.09805	0.00631069	0.750061	1.64154	1.78896
10.277	-0.0202669	-0.0375969	2.93957	0.387454	0.829151	0.165994	0.474961	0.0110226	-0.180792	1.06187	0.515717	-0.362413	-0.133286	0.924095	-0.549351	-0.195674	1.50758	-0.474647	-0.571031	-0.133286	-0.133261	0.0314018	-0.10403	1.31806	-0.740288	-0.630373	0.283931	1.64965	1.0727	0.0144962	0.812285	1.64441	1.91403
10.297	-0.0223886	-0.0471907	2.94466	0.387569	0.827571	0.164723	0.479274	-0.0046748	-0.187561	1.07522	0.52489	-0.346406	-0.133286	0.947126	-0.545382	-0.201696	1.60463	-0.498041	-0.554756	-0.133286	-0.130841	0.024989	-0.110303	1.37137	-0.77377	-0.408449	0.388652	1.41043	1.05558	0.0214536	0.87162	1.63525	2.00784
10.3169	-0.026699	-0.0565875	2.95304	0.387048	0.825205	0.163695	0.482202	-0.0216084	-0.195281	1.09303	0.537501	-0.332174	-0.133286	0.963067	-0.549857	-0.211363	1.67776	-0.507763	-0.545949	-0.133286	-0.130495	0.0190558	-0.118174	1.42277	-0.805952	-0.197435	0.494969	1.20838	1.04569	0.0267592	0.927742	1.61809	2.06651
10.3369	-0.0320422	-0.065519	2.96377	0.385898	0.822065	0.162976	0.484703	-0.0382567	-0.202519	1.11434	0.552574	-0.322154	-0.133286	0.971336	-0.562516	-0.22181	1.71792	-0.498634	-0.549811	-0.133286	-0.131483	0.0137432	-0.128085	1.47596	-0.838165	-0.0176519	0.601308	1.06209	1.04099	0.0303136	0.980568	1.59604	2.09613
10.3569	-0.0370908	-0.0735947	2.97592	0.384182	0.818195	0.162565	0.487857	-0.052901	-0.208122	1.13794	0.568832	-0.318834	-0.133286	0.970449	-0.581823	-0.231697	1.71623	-0.467824	-0.565852	-0.133286	-0.133243	0.00924597	-0.139847	1.52883	-0.873755	0.129783	0.713771	0.966954	1.03924	0.0320483	1.03025	1.5709	2.10652
10.3769	-0.0406224	-0.0806534	2.98952	0.381982	0.813649	0.162519	0.492702	-0.064447	-0.211464	1.16287	0.585148	-0.324742	-0.133286	0.958401	-0.604524	-0.241819	1.66604	-0.413756	-0.587135	-0.133286	-0.13519	0.00566958	-0.153256	1.57859	-0.91598	0.250365	0.838932	0.909482	1.03856	0.0318559	1.07694	1.54318	2.10651
10.3969	-0.0416901	-0.0869201	3.00566	0.379378	0.808486	0.163037	0.500114	-0.0729313	-0.212469	1.18861	0.600822	-0.34181	-0.133286	0.933575	-0.625987	-0.254992	1.56563	-0.334652	-0.601669	-0.133286	-0.136588	0.00293892	-0.168334	1.62327	-0.965686	0.347821	0.979614	0.876515	1.03778	0.0294122	1.12065	1.51232	2.10232
10.4169	-0.0398674	-0.0926558	3.02579	0.376445	0.802771	0.164435	0.510457	-0.0795431	-0.211914	1.21516	0.615655	-0.369678	-0.133286	0.895732	-0.641759	-0.274971	1.41987	-0.229315	-0.596701	-0.133286	-0.136858	0.000909482	-0.185182	1.66089	-1.02002	0.4209	1.13329	0.859272	1.03653	0.0239895	1.16131	1.47697	2.0975
10.4369	-0.0353667	-0.0978001	3.05077	0.373226	0.796578	0.167048	0.523315	-0.0859815	-0.211263	1.24276	0.629844	-0.405297	-0.133286	0.846809	-0.649261	-0.304931	1.23998	-0.102464	-0.560946	-0.133286	-0.135913	-0.000528268	-0.203303	1.68854	-1.07529	0.467918	1.29437	0.853668	1.03506	0.0146144	1.1991	1.43549	2.09365
10.4569	-0.0290322	-0.10188	3.08067	0.369718	0.789977	0.171163	0.537462	-0.0931155	-0.211459	1.27143	0.64366	-0.445701	-0.133286	0.791304	-0.648338	-0.346048	1.04238	0.0303084	-0.485384	-0.133286	-0.134242	-0.00145056	-0.221369	1.70287	-1.12825	0.488507	1.45671	0.857422	1.03385	0.000190187	1.23435	1.38696	2.09118
10.4769	-0.0220816	-0.10413	3.11522	0.365861	0.783073	0.17704	0.551146	-0.100805	-0.212717	1.30082	0.657165	-0.488932	-0.133286	0.73571	-0.640746	-0.397329	0.84643	0.14561	-0.368972	-0.133286	-0.132557	-0.00185537	-0.237603	1.70067	-1.17576	0.483418	1.61536	0.86941	1.03312	-0.0204445	1.26729	1.33184	2.08988
10.4969	-0.0154329	-0.103666	3.1539	0.361553	0.776024	0.184968	0.562724	-0.108903	-0.215475	1.33024	0.67039	-0.531756	-0.133286	0.686853	-0.629368	-0.456788	0.670144	0.22247	-0.222749	-0.133286	-0.131064	-0.00153033	-0.250043	1.67975	-1.21446	0.455224	1.76691	0.889565	1.03253	-0.0483654	1.29773	1.27203	2.08939
10.5169	-0.0091509	-0.0995498	3.1958	0.356719	0.76901	0.195256	0.571397	-0.117767	-0.220757	1.35876	0.683534	-0.568569	-0.133286	0.650538	-0.617242	-0.52141	0.526107	0.249849	-0.0673226	-0.133286	-0.129148	2.3087e-05	-0.25666	1.64016	-1.24047	0.409576	1.90852	0.918688	1.03091	-0.0840215	1.32377	1.20999	2.08934
10.5369	-0.0029197	-0.0906789	3.23958	0.351376	0.762213	0.208139	0.576887	-0.127626	-0.229783	1.38515	0.696684	-0.594141	-0.133286	0.631038	-0.606919	-0.585173	0.42052	0.227697	0.0747378	-0.133286	-0.126089	0.00362833	-0.255374	1.58541	-1.25016	0.355727	2.03707	0.9583	1.02693	-0.126282	1.34192	1.1472	2.08949
10.5569	0.00329387	-0.0759428	3.28394	0.345619	0.755845	0.223614	0.578767	-0.13778	-0.243438	1.40771	0.708986	-0.608682	-0.133286	0.6309	-0.600216	-0.638979	0.354128	0.163806	0.184527	-0.133286	-0.12163	0.0101688	-0.24425	1.5217	-1.24155	0.304621	2.14926	1.00956	1.01994	-0.172055	1.34886	1.08376	2.08968
10.5769	0.0090316	-0.0548215	3.32798	0.339538	0.750187	0.241304	0.576094	-0.147063	-0.262276	1.42445	0.719301	-0.615074	-0.133286	0.650629	-0.597768	-0.67302	0.32371	0.0706006	0.250962	-0.133286	-0.116022	0.019948	-0.221863	1.45512	-1.21502	0.265036	2.24246	1.07284	1.01045	-0.217128	1.34327	1.01946	2.08984
10.5969	0.0140728	-0.0276273	3.37073	0.333177	0.745516	0.260499	0.568354	-0.154305	-0.286266	1.43362	0.726642	-0.616549	-0.133286	0.68919	-0.599382	-0.680855	0.324451	-0.0361489	0.272853	-0.133286	-0.109361	0.0325301	-0.187378	1.38946	-1.1731	0.241315	2.31508	1.14882	0.99955	-0.257653	1.32578	0.955195	2.08995
10.6169	0.0188103	0.00434847	3.41088	0.326525	0.741979	0.280441	0.556145	-0.158998	-0.314362	1.43445	0.730419	-0.615665	-0.133286	0.744293	-0.603851	-0.660054	0.351302	-0.138961	0.255784	-0.133286	-0.101492	0.046836	-0.140896	1.32677	-1.11967	0.23425	2.36642	1.23596	0.987908	-0.291274	1.29756	0.893633	2.09
